Coordinates
version=1
nRows=14
nColumns=42
inDegrees=yes

Units are S.I. units (second, meters, Newtons, ...)
If the header above contains a line with 'inDegrees', this indicates whether rotational values are in degrees (yes) or radians (no).

endheader
time	pelvis_tilt	pelvis_list	pelvis_rotation	pelvis_tx	pelvis_ty	pelvis_tz	hip_flexion_r	hip_adduction_r	hip_rotation_r	knee_angle_r	knee_adduction_r	knee_angle_r_beta	ankle_angle_r	subtalar_angle_r	mtp_angle_r	hip_flexion_l	hip_adduction_l	hip_rotation_l	knee_angle_l	knee_adduction_l	knee_angle_l_beta	ankle_angle_l	subtalar_angle_l	mtp_angle_l	lumbar_extension	lumbar_bending	lumbar_rotation	arm_flex_r	arm_add_r	arm_rot_r	elbow_flex_r	pro_sup_r	wrist_flex_r	wrist_dev_r	arm_flex_l	arm_add_l	arm_rot_l	elbow_flex_l	pro_sup_l	wrist_flex_l	wrist_dev_l
      0.05000000	      4.70650347	     -1.54007369	     11.70186601	     -1.98081127	      0.83855149	     -0.27570371	     28.19310509	      3.04620210	     -7.98879727	     25.38275783	     -2.81019227	      0.44301270	      6.79643142	    -17.33091694	     -9.55925341	      1.86256117	      4.38183322	     -9.48595685	     42.76779859	    -14.69515236	      0.74643890	     37.27557493	     -4.77470509	     -9.55925341	    -32.47529488	      4.66007584	     -9.07754933	      1.82374112	     -2.57377061	    -10.31462779	     25.30749655	     90.00000001	      0.00000000	      0.00000000	     34.23637936	    -17.73740406	      7.39639578	     41.71726941	     90.00000001	      0.00000000	      0.00000000
      0.06000000	      4.89639951	     -1.80964345	     11.88040056	     -1.97014046	      0.83906677	     -0.27455545	     27.89535363	      3.68395737	     -7.76514120	     26.41268911	     -2.92022776	      0.46098839	      6.46518853	    -17.52241432	     -9.54387055	      1.33013047	      3.77389618	     -9.25181258	     43.62082099	    -14.86381689	      0.76132695	     36.76149094	     -4.79360198	     -9.54387055	    -32.53223342	      5.03272854	     -9.06496189	      1.58567249	     -2.50289239	    -10.52744398	     25.23095244	     90.00000001	      0.00000000	      0.00000000	     34.14606421	    -17.83611459	      7.20873302	     41.61374330	     90.00000001	      0.00000000	      0.00000000
      0.07000000	      5.07363771	     -2.08465582	     12.07796166	     -1.95948560	      0.83969769	     -0.27350153	     27.60948975	      4.28188408	     -7.44758503	     27.48668808	     -2.94844612	      0.47973321	      6.19929206	    -17.83405361	     -9.52880202	      0.99806010	      3.17089258	     -8.90468604	     44.84952906	    -15.02533707	      0.78277195	     35.90718185	     -4.91473339	     -9.52880202	    -32.55894855	      5.44722980	     -9.06573523	      1.41319781	     -2.42882809	    -10.72966157	     25.11028458	     90.00000001	      0.00000000	      0.00000000	     33.91649417	    -17.92472178	      6.94056478	     41.59570197	     90.00000001	      0.00000000	      0.00000000
      0.08000000	      4.95295622	     -2.32181810	     12.31589902	     -1.94914652	      0.84014110	     -0.27243023	     27.62233892	      4.73469719	     -6.98858565	     28.47424476	     -2.85934956	      0.49696932	      5.89058008	    -18.28359663	     -9.35922835	      1.10405451	      2.93998327	     -7.22703302	     46.52885671	    -14.71408734	      0.81208175	     33.92166737	     -7.61352488	     -9.35922835	    -32.29923483	      5.73876456	     -9.23373500	      1.59727711	     -2.09146571	    -12.63011146	     24.55721625	     90.00000001	      0.00000000	      0.00000000	     33.33900382	    -17.62801238	      4.93557325	     41.97790804	     90.00000001	      0.00000000	      0.00000000
      0.09000000	      5.14079796	     -2.60798377	     12.49512301	     -1.93854667	      0.84105804	     -0.27120546	     27.19798392	      5.33850204	     -6.59129795	     29.33371406	     -2.74873353	      0.51196989	      6.10493141	    -18.47735422	     -9.33901666	      1.10809276	      2.31380281	     -6.72484987	     48.34473720	    -14.82084359	      0.84377484	     32.48709096	     -7.67726459	     -9.33901666	    -32.33793984	      6.10152081	     -9.18758328	      1.53261551	     -2.04685621	    -12.79217584	     24.49343482	     90.00000001	      0.00000000	      0.00000000	     33.00054790	    -17.69719554	      4.79109530	     41.91999881	     90.00000001	      0.00000000	      0.00000000
      0.10000000	      5.04344511	     -2.81614080	     12.67534789	     -1.92831367	      0.84170387	     -0.27013476	     27.08339081	      5.72438660	     -6.20549680	     30.22171244	     -2.54495183	      0.52746839	      6.37794871	    -18.61496877	     -9.25103551	      1.53736463	      2.11446677	     -4.92699612	     50.64302830	    -14.32870447	      0.88388759	     29.95953855	    -10.30517628	     -9.25103551	    -32.11098290	      6.37173458	     -9.27332003	      1.65804392	     -1.94488745	    -13.46220276	     24.32114826	     90.00000001	      0.00000000	      0.00000000	     32.38530479	    -17.64101675	      3.96732506	     42.14518627	     90.00000001	      0.00000000	      0.00000000
      0.11000000	      5.36000690	     -3.09146961	     12.84499645	     -1.91780466	      0.84300865	     -0.26889964	     26.30339497	      6.33884566	     -6.10619527	     30.72738120	     -2.44923329	      0.53629397	      6.87805644	    -18.69545657	     -9.23660915	      1.69518161	      1.48274470	     -4.09226150	     52.93949644	    -14.18678287	      0.92396852	     28.29332507	    -10.40079364	     -9.23660915	    -32.31407704	      6.73560722	     -9.16666004	      1.72077901	     -1.96815208	    -13.55971814	     24.32766516	     90.00000001	      0.00000000	      0.00000000	     31.99684066	    -17.63391831	      3.82475883	     42.04987821	     90.00000001	      0.00000000	      0.00000000
      0.12000000	      5.04932960	     -3.31964823	     13.04327710	     -1.90798617	      0.84348930	     -0.26777973	     26.29050542	      6.66278031	     -6.24945080	     31.30322784	     -2.37023846	      0.54634439	      7.53075721	    -18.70713811	     -9.15744542	      2.69593251	      1.43922725	     -0.74297126	     55.92447564	    -12.52187589	      0.97606623	     24.85731447	    -14.38460993	     -9.15744542	    -31.86820156	      6.96872076	     -9.24816234	      1.88288507	     -1.87636404	    -14.05044872	     24.30430995	     90.00000001	      0.00000000	      0.00000000	     31.29827794	    -17.47140110	      2.92321604	     42.08702769	     90.00000001	      0.00000000	      0.00000000
      0.13000000	      5.04459830	     -3.62901854	     13.20714272	     -1.89802993	      0.84440953	     -0.26656142	     25.76930338	      7.21466292	     -6.61827932	     31.51114073	     -2.42048597	      0.54997316	      8.24624979	    -18.67968595	     -9.09011212	      3.53681371	      1.03874503	      1.80833052	     58.81301074	    -11.07874259	      1.02648068	     22.33256992	    -16.22628171	     -9.09011212	    -31.75370586	      7.32107504	     -9.14990994	      2.07698481	     -1.86554786	    -14.36606702	     24.31369546	     90.00000001	      0.00000000	      0.00000000	     30.77297995	    -17.31043544	      2.38053161	     41.91770704	     90.00000001	      0.00000000	      0.00000000
      0.14000000	      4.96760713	     -3.95310913	     13.34948404	     -1.88825013	      0.84512888	     -0.26530978	     25.30434063	      7.76252092	     -7.15922383	     31.64323543	     -2.52218683	      0.55227864	      8.98765772	    -18.61931258	     -9.03493255	      4.63628615	      0.62706641	      4.42881598	     61.74922724	     -9.41833474	      1.07772733	     20.07670723	    -17.43167760	     -9.03493255	    -31.55654280	      7.65642386	     -9.02508718	      2.29221917	     -1.88525131	    -14.54810481	     24.38897129	     90.00000001	      0.00000000	      0.00000000	     30.19997731	    -17.14104746	      1.93409441	     41.72793363	     90.00000001	      0.00000000	      0.00000000
      0.15000000	      4.85106608	     -4.29843671	     13.46341406	     -1.87861781	      0.84572332	     -0.26405800	     24.84257991	      8.35412072	     -7.74135740	     31.64356362	     -2.68267891	      0.55228437	      9.76716595	    -18.52510843	     -8.99882647	      5.93134964	      0.19476406	      6.95542020	     64.60887043	     -7.68699140	      1.12763751	     18.15779373	    -18.08735651	     -8.99882647	    -31.32039195	      7.99302875	     -8.85705966	      2.52225798	     -1.94751253	    -14.61985528	     24.50688018	     90.00000001	      0.00000000	      0.00000000	     29.58017568	    -16.94828824	      1.60711238	     41.50589120	     90.00000001	      0.00000000	      0.00000000
      0.16000000	      4.68372890	     -4.64290926	     13.56454219	     -1.86919694	      0.84613863	     -0.26282835	     24.45127853	      8.91452958	     -8.37439634	     31.65173970	     -2.82917301	      0.55242707	     10.47852923	    -18.45928768	     -8.94944015	      7.35045375	     -0.18463635	      9.94030463	     67.33383667	     -5.46537718	      1.17519715	     16.95377689	    -18.59440480	     -8.94944015	    -31.03774136	      8.32143507	     -8.66978391	      2.82251407	     -2.02783704	    -14.65483920	     24.64796856	     90.00000001	      0.00000000	      0.00000000	     28.97375958	    -16.69073078	      1.11689801	     41.21179144	     90.00000001	      0.00000000	      0.00000000
      0.17000000	      4.52081280	     -4.98029246	     13.62496012	     -1.85988935	      0.84651400	     -0.26163664	     24.02628119	      9.49257082	     -8.92487044	     31.58105652	     -2.97991631	      0.55119342	     11.18984008	    -18.37388912	     -8.88140732	      8.84984072	     -0.55709528	     12.53831379	     69.79590083	     -3.43500177	      1.21816827	     16.20877777	    -18.85773729	     -8.88140732	    -30.76850680	      8.63111796	     -8.43974895	      3.16417592	     -2.16142181	    -14.62785233	     24.81541336	     90.00000001	      0.00000000	      0.00000000	     28.36913874	    -16.36881493	      0.54063153	     40.82463756	     90.00000001	      0.00000000	      0.00000000
      0.18000000	      4.32852550	     -5.27501163	     13.64830967	     -1.85071766	      0.84678484	     -0.26050770	     23.64129726	     10.01918640	     -9.33363664	     31.53548905	     -3.08356219	      0.55039812	     11.93460218	    -18.29069927	     -8.83510678	     10.45018126	     -0.84439966	     14.70334206	     71.97564399	     -1.70146207	      1.25621197	     15.72282126	    -19.02938602	     -8.83510678	    -30.48476406	      8.87910492	     -8.19063469	      3.54380602	     -2.31757322	    -14.55654442	     25.03623606	     90.00000001	      0.00000000	      0.00000000	     27.72385319	    -16.06649419	      0.18804531	     40.44836379	     90.00000001	      0.00000000	      0.00000000
